<?xml version="1.0" standalone="no"?>
<!DOCTYPE svg PUBLIC "-//W3C//DTD SVG 20010904//EN"
 "http://www.w3.org/TR/2001/REC-SVG-20010904/DTD/svg10.dtd">
<svg version="1.0" xmlns="http://www.w3.org/2000/svg"
 width="637.000000pt" height="637.000000pt" viewBox="0 0 637.000000 637.000000"
 preserveAspectRatio="xMidYMid meet">
<metadata>
Created by potrace 1.11, written by Peter Selinger 2001-2013
</metadata>
<g transform="translate(0.000000,637.000000) scale(0.100000,-0.100000)"
fill="#000000" stroke="none">
<path d="M0 3180 l0 -3180 3180 0 3180 0 0 3180 0 3180 -3180 0 -3180 0 0
-3180z m3281 2248 c164 -49 299 -139 399 -268 40 -52 56 -76 69 -107 6 -11 15
-24 20 -28 6 -3 11 -14 11 -23 0 -9 11 -39 24 -67 37 -78 56 -125 56 -135 0
-6 14 -40 31 -77 16 -38 37 -83 45 -100 7 -18 21 -48 30 -66 13 -27 14 -38 5
-55 -10 -18 -8 -31 10 -70 19 -39 23 -43 26 -24 3 12 9 22 15 22 7 0 8 -17 4
-49 -4 -30 -2 -52 4 -56 5 -3 7 0 4 8 -3 8 -1 18 5 21 6 4 13 -5 17 -21 4 -15
13 -37 21 -48 8 -12 12 -37 9 -65 -2 -25 -1 -35 1 -22 2 12 8 22 13 22 14 0
23 -41 11 -53 -17 -17 -14 -30 28 -119 22 -46 43 -96 46 -111 9 -35 25 -35 27
1 1 15 4 -2 8 -38 5 -58 7 -62 16 -40 11 25 11 25 18 3 4 -12 2 -32 -4 -43 -9
-17 -8 -27 4 -45 9 -14 16 -33 16 -44 0 -11 4 -22 9 -25 4 -3 16 -27 26 -53
19 -51 28 -72 70 -167 20 -46 29 -56 36 -45 7 10 8 7 4 -12 -6 -25 7 -65 57
-179 14 -30 33 -75 43 -100 10 -25 29 -70 42 -100 14 -30 34 -77 45 -105 17
-42 47 -115 144 -345 8 -19 19 -43 24 -52 6 -10 10 -22 10 -27 0 -9 15 -43 82
-191 77 -168 105 -362 73 -500 -44 -187 -104 -299 -225 -420 -69 -68 -103 -94
-175 -129 -133 -66 -146 -70 -365 -96 -144 -18 -150 -18 -150 0 0 11 10 13 50
8 34 -4 50 -2 50 6 0 6 -16 11 -37 11 -21 0 -51 7 -67 15 -32 17 -76 20 -76 5
0 -5 16 -10 35 -10 19 0 35 -4 35 -10 0 -5 -16 -10 -35 -10 -19 0 -35 5 -35
10 0 6 -7 10 -16 10 -34 0 -190 106 -256 174 -37 38 -68 73 -68 77 0 4 -6 14
-13 21 -7 7 -28 45 -46 83 -34 73 -37 79 -71 160 -12 28 -26 61 -32 75 -6 14
-17 39 -23 55 -7 17 -25 54 -39 83 -14 30 -26 60 -26 68 0 30 -40 36 -253 33
-117 -1 -222 -4 -235 -7 -16 -3 -31 -21 -48 -55 -13 -28 -24 -54 -24 -59 0 -4
-11 -31 -24 -60 -14 -29 -41 -93 -61 -142 -74 -182 -128 -270 -222 -360 -62
-60 -164 -128 -233 -156 -30 -12 -64 -26 -75 -30 -28 -11 -188 -40 -221 -40
-87 0 -238 42 -354 98 -252 122 -429 423 -430 732 0 69 21 196 44 264 14 40
169 415 185 446 4 8 43 98 85 200 43 102 81 192 85 200 4 8 49 114 100 235 51
121 101 238 111 260 10 22 41 96 70 165 29 69 58 139 65 155 28 64 54 124 105
245 29 69 58 139 65 155 35 78 143 333 174 410 13 31 46 107 113 261 67 151
136 243 249 330 88 67 180 111 293 140 72 18 295 13 367 -8z m719 -964 c0 -13
-4 -24 -10 -24 -5 0 -10 14 -10 31 0 17 4 28 10 24 6 -3 10 -17 10 -31z m140
-330 c0 -14 -4 -23 -10 -19 -5 3 -10 15 -10 26 0 10 5 19 10 19 6 0 10 -12 10
-26z m30 -64 c0 -11 -4 -20 -10 -20 -5 0 -10 9 -10 20 0 11 5 20 10 20 6 0 10
-9 10 -20z m30 -70 c0 -10 -4 -22 -10 -25 -6 -4 -10 7 -10 25 0 18 4 29 10 25
6 -3 10 -15 10 -25z m85 -230 c-11 -17 -23 -1 -18 21 5 19 7 19 15 5 5 -9 6
-21 3 -26z m25 -41 c0 -11 -4 -17 -10 -14 -5 3 -10 13 -10 21 0 8 5 14 10 14
6 0 10 -9 10 -21z m30 -65 c0 -14 -4 -23 -10 -19 -5 3 -10 15 -10 26 0 10 5
19 10 19 6 0 10 -12 10 -26z m107 -286 c-3 -7 -5 -2 -5 12 0 14 2 19 5 13 2
-7 2 -19 0 -25z m30 -60 c-3 -8 -6 -5 -6 6 -1 11 2 17 5 13 3 -3 4 -12 1 -19z
m203 -454 c0 -8 -5 -12 -10 -9 -6 4 -8 11 -5 16 9 14 15 11 15 -7z m-135
-1624 c3 -5 -1 -10 -10 -10 -9 0 -13 5 -10 10 3 6 8 10 10 10 2 0 7 -4 10 -10z
m-65 -30 c0 -5 -9 -10 -21 -10 -11 0 -17 5 -14 10 3 6 13 10 21 10 8 0 14 -4
14 -10z m-70 -30 c-8 -5 -24 -10 -35 -10 -11 0 -27 5 -35 10 -11 7 -1 10 35
10 36 0 46 -3 35 -10z m-165 -20 c15 -7 10 -9 -22 -9 -24 -1 -43 4 -43 9 0 12
37 12 65 0z"/>
<path d="M2540 5075 c0 -9 5 -15 11 -13 6 2 11 8 11 13 0 5 -5 11 -11 13 -6 2
-11 -4 -11 -13z"/>
<path d="M2492 5018 c-17 -17 -15 -38 3 -38 8 0 15 4 15 9 0 5 9 11 21 14 12
3 18 10 14 16 -8 15 -38 14 -53 -1z"/>
<path d="M2908 4998 c-9 -5 -6 -8 9 -8 12 0 24 4 27 8 7 11 -19 11 -36 0z"/>
<path d="M2866 4965 c-8 -8 -19 -15 -25 -15 -6 0 -11 -5 -11 -10 0 -7 6 -7 18
-1 32 18 57 40 45 41 -6 0 -18 -7 -27 -15z"/>
<path d="M3772 4940 c0 -14 2 -19 5 -12 2 6 2 18 0 25 -3 6 -5 1 -5 -13z"/>
<path d="M2445 4921 c-9 -30 6 -50 17 -21 5 14 5 27 -1 33 -5 5 -12 1 -16 -12z"/>
<path d="M2783 4893 c-13 -14 -23 -32 -23 -39 0 -6 -7 -14 -15 -18 -8 -3 -15
-17 -15 -31 0 -14 -4 -25 -10 -25 -5 0 -10 -8 -10 -19 0 -10 -7 -24 -15 -31
-8 -7 -15 -23 -15 -37 0 -13 -7 -26 -15 -29 -8 -4 -15 -18 -15 -34 0 -16 -7
-30 -15 -34 -8 -3 -15 -13 -15 -23 0 -10 -7 -27 -15 -37 -8 -11 -15 -28 -15
-38 0 -22 -31 -55 -57 -60 -25 -5 -23 -22 5 -26 21 -3 21 -5 7 -25 -8 -12 -15
-29 -15 -38 0 -10 -4 -19 -10 -21 -5 -1 -11 -14 -13 -27 -2 -14 -9 -27 -15
-29 -7 -2 -12 -17 -12 -33 0 -20 -5 -29 -16 -29 -13 0 -15 7 -10 33 3 17 6 80
7 140 1 67 5 107 12 107 5 0 -2 10 -16 23 -37 31 -36 63 3 69 23 4 37 -3 64
-29 22 -22 37 -30 41 -23 10 16 -44 70 -68 70 -17 0 -19 5 -15 44 5 37 2 45
-13 49 -13 4 -19 14 -19 34 0 22 2 25 11 13 8 -11 9 -9 3 10 -4 14 -7 46 -6
71 1 40 -2 45 -20 44 -23 -2 -57 -56 -58 -92 0 -12 -4 -25 -10 -28 -5 -3 -17
-23 -25 -43 -9 -20 -22 -50 -30 -67 -36 -83 -46 -106 -73 -175 -17 -41 -48
-114 -71 -162 -23 -48 -41 -89 -41 -92 0 -3 -13 -34 -28 -68 -39 -85 -138
-316 -173 -403 -16 -38 -33 -77 -38 -86 -5 -9 -30 -67 -56 -130 -26 -63 -53
-127 -60 -144 -51 -114 -72 -163 -120 -279 -29 -72 -67 -162 -84 -200 -18 -37
-55 -123 -82 -190 -28 -66 -74 -173 -101 -236 -124 -284 -156 -408 -143 -555
29 -342 236 -596 550 -675 151 -37 288 -23 430 44 88 42 213 129 214 150 1 5
17 23 36 42 19 18 35 37 35 43 0 10 18 36 48 66 17 19 15 25 -7 25 -34 0 -34
20 -1 31 27 10 29 13 14 24 -19 13 -11 35 13 35 12 0 14 7 10 35 -4 22 0 46 9
63 7 15 14 37 14 49 0 12 5 25 10 28 6 3 10 14 10 25 0 10 7 20 15 24 8 3 15
17 15 31 0 15 12 42 26 60 14 19 23 39 19 45 -3 5 3 24 15 41 12 16 20 39 17
49 -3 11 1 27 9 37 7 10 14 28 14 40 0 37 36 52 125 53 97 1 588 18 700 24 44
2 81 9 83 15 5 16 -39 151 -55 167 -12 12 -100 14 -518 14 -277 0 -511 -3
-520 -6 -21 -8 -35 -38 -144 -299 -51 -121 -103 -244 -117 -273 -13 -29 -24
-56 -24 -61 0 -15 -51 -105 -81 -143 -66 -83 -200 -129 -314 -108 -33 6 -75
14 -94 17 -40 7 -138 101 -166 160 -59 123 -57 228 4 368 39 87 44 100 102
240 17 44 45 108 61 143 15 35 28 70 28 77 0 8 4 16 9 19 4 3 16 27 26 53 10
26 23 62 30 78 14 34 88 208 117 275 10 25 24 56 30 70 5 14 16 39 23 55 7 17
34 82 60 145 26 63 58 137 71 163 13 27 24 57 24 67 0 10 7 23 15 30 8 7 15
21 15 31 0 11 4 27 9 37 5 9 19 40 31 67 12 28 28 64 35 80 8 17 21 48 30 70
9 22 20 48 25 57 6 10 10 26 10 37 0 10 7 24 15 31 8 7 15 21 15 30 0 10 6 31
14 47 8 15 21 44 30 63 8 19 27 62 42 95 14 33 33 76 41 95 8 19 21 48 29 63
8 16 14 35 14 43 0 8 4 22 9 32 19 38 51 110 51 115 0 6 56 133 70 159 6 10
10 27 10 38 0 11 4 20 10 20 5 0 13 12 16 28 4 15 10 29 13 32 10 8 51 69 51
75 0 12 -16 2 -37 -22z m-353 -164 c0 -5 -11 -9 -25 -9 -28 0 -34 16 -7 23 20
4 32 -1 32 -14z m0 -55 c0 -17 -22 -14 -28 4 -2 7 3 12 12 12 9 0 16 -7 16
-16z m7 -506 c-3 -8 -6 -5 -6 6 -1 11 2 17 5 13 3 -3 4 -12 1 -19z m-27 -78
c0 -5 -7 -10 -15 -10 -8 0 -15 5 -15 10 0 6 7 10 15 10 8 0 15 -4 15 -10z
m101 -2527 c-8 -15 -10 -15 -11 -2 0 17 10 32 18 25 2 -3 -1 -13 -7 -23z"/>
<path d="M3403 4800 c5 -23 210 -519 297 -715 15 -34 123 -290 167 -395 24
-59 30 -73 57 -132 14 -31 26 -60 26 -65 1 -4 9 -26 20 -48 11 -22 19 -43 20
-47 0 -7 56 -133 70 -160 6 -10 10 -22 10 -28 0 -5 11 -33 24 -62 14 -29 79
-183 146 -343 67 -159 130 -308 140 -330 10 -22 53 -123 96 -225 l79 -185 0
-100 c0 -88 -4 -107 -27 -155 -83 -169 -271 -246 -442 -180 -41 15 -51 -1 -19
-32 110 -101 218 -158 301 -158 34 0 142 28 152 40 3 3 25 21 50 40 25 18 53
43 63 54 24 28 57 100 57 125 0 11 5 23 11 27 8 5 10 35 7 93 -6 92 -6 94
-165 471 -36 85 -80 191 -98 235 -19 44 -77 182 -129 307 -53 125 -96 230 -96
234 0 5 -73 179 -100 239 -29 62 -66 151 -96 230 -19 50 -65 160 -101 245 -56
132 -95 225 -132 315 -5 11 -23 56 -41 100 -18 44 -43 103 -55 130 -12 28 -37
86 -54 130 -66 162 -95 213 -173 310 -5 6 -17 22 -29 38 -27 36 -43 35 -36 -3z"/>
<path d="M2527 4693 c-14 -13 -6 -33 12 -33 25 0 38 20 20 31 -17 11 -24 11
-32 2z"/>
<path d="M3881 4664 c0 -11 3 -14 6 -6 3 7 2 16 -1 19 -3 4 -6 -2 -5 -13z"/>
<path d="M3905 4601 c-3 -5 -1 -12 5 -16 5 -3 10 1 10 9 0 18 -6 21 -15 7z"/>
<path d="M3938 4535 c2 -14 6 -25 8 -25 2 0 4 11 4 25 0 14 -4 25 -9 25 -4 0
-6 -11 -3 -25z"/>
<path d="M2493 4487 c-3 -5 -1 -13 4 -18 11 -11 55 1 50 14 -4 13 -46 17 -54
4z"/>
<path d="M4050 4260 c0 -5 5 -10 11 -10 5 0 7 5 4 10 -3 6 -8 10 -11 10 -2 0
-4 -4 -4 -10z"/>
<path d="M3072 3708 c-7 -7 -12 -16 -12 -21 0 -7 -14 -41 -50 -122 -33 -74
-55 -127 -82 -193 -17 -43 -37 -90 -45 -106 -24 -47 -6 -54 117 -45 182 14
216 19 200 33 -20 15 -22 30 -9 63 10 27 11 27 25 9 18 -25 31 -13 17 17 -6
12 -26 69 -44 127 -18 58 -36 112 -41 120 -5 8 -17 39 -26 69 -20 58 -30 69
-50 49z"/>
<path d="M3250 3263 c0 -13 5 -23 10 -23 13 0 13 11 0 30 -8 12 -10 11 -10 -7z"/>
</g>
</svg>
